<svg width="28" height="25" viewBox="0 0 28 25" fill="none" xmlns="http://www.w3.org/2000/svg">
<path d="M22.6913 7.91088V6.9193L19.8528 5.78131L17.8826 5.01165V14.5216H17.2291V4.25612L19.8528 5.27607V4.7L17.2291 3.46758L16.4449 2.42875H11.3468L10.5623 3.46758L7.93863 4.7V5.27607L10.5623 4.25612V14.5216H9.91345V5.01165L7.93863 5.78131L5.10021 6.9193V7.91088L0.296265 9.18581V21.2172L8.49432 24.7351H13.1022V22.4449H14.6895V24.7634H19.2834L27.4814 21.2456V9.1811L22.6913 7.91088ZM18.4383 8.87889V7.807L25.3758 9.34636V9.92715L18.9891 8.83638V19.4465L18.4383 19.6118V8.87889ZM25.3758 10.5788V18.521L22.668 19.3237V10.2199L25.3758 10.5788ZM21.8043 10.1066V19.5504L20.2496 20.0226V9.90353L21.8043 10.1066ZM11.8929 3.32119H15.9031L16.3142 4.26557H11.4822L11.8929 3.32119ZM13.8957 16.4623H12.0283V14.9371H15.7259V16.4623H13.8957ZM15.7631 17.3783V18.9035H12.0658V17.3783H15.7631ZM14.2412 14.0258H12.0658V6.42349C12.0658 6.05045 12.4673 5.80964 13.5877 5.80964H14.2412C15.3617 5.80964 15.7631 6.05045 15.7631 6.42349V14.0258H14.2412ZM2.43446 9.35581L9.37199 7.807V19.6118L8.82095 19.4512V8.84112L2.43446 9.94131V9.35581ZM7.5698 20.032L6.01526 19.5598V10.116L7.5698 9.91298V20.032ZM2.43446 10.5882L5.14222 10.2293V19.3285L2.43446 18.5258V10.5882ZM0.744443 9.73827L1.77619 9.51162V18.3416L0.744443 18.0347V9.73827ZM27.0843 20.7592L19.316 23.9607H15.7724V21.2692L13.905 20.7025L12.0376 21.2692V23.9607H8.49432L0.725782 20.7592V18.6674L8.49432 21.1464H11.3468V20.6742L13.919 19.914L16.4821 20.6601V21.1322H19.2834L27.0703 18.6674L27.0843 20.7592ZM27.0843 18.0299L26.0527 18.3369V9.50691L27.0843 9.73356V18.0299ZM15.4644 2.02267L14.6473 0.488048C14.1807 0.488048 14.0546 0.251953 13.9097 0.251953C13.765 0.251953 13.6483 0.488048 13.172 0.488048L12.3552 2.02267H15.4644Z" fill="#DDDDDD"/>
</svg>
